<svg width="120" height="120" viewBox="0 0 120 120" fill="none" xmlns="http://www.w3.org/2000/svg">
<mask id="mask0_1431_3182" style="mask-type:alpha" maskUnits="userSpaceOnUse" x="0" y="0" width="120" height="120">
<rect width="120" height="120" fill="#D9D9D9"/>
</mask>
<g mask="url(#mask0_1431_3182)">
<path d="M39.9584 24.2018L35.9197 12.1818L40.0359 10.7968L44.0747 22.7881L39.9584 24.2018ZM57.7859 18.4606V6.53809H62.2084V18.4606H57.7859ZM80.0359 24.2018L75.9197 22.7881L79.9584 10.7968L84.0747 12.2106L80.0359 24.2018ZM12.9584 112.596L12.2284 107.624L38.6034 103.528C40.0234 103.286 41.2822 102.711 42.3797 101.803C43.4772 100.896 44.2247 99.7589 44.6222 98.3931L48.7759 85.1431C49.3851 83.3356 49.3372 81.5697 48.6322 79.8456C47.9272 78.1214 46.7122 76.8714 44.9872 76.0956L40.2859 90.8268L35.4972 89.2681L47.1697 52.5956C47.5289 51.3906 47.5643 50.2077 47.2759 49.0468C46.9876 47.8868 46.3434 47.0568 45.3434 46.5568L26.0934 83.2493C25.0168 85.281 23.4834 86.8981 21.4934 88.1006C19.5043 89.3023 17.358 89.9031 15.0547 89.9031H11.0547V84.9031H15.0547C16.4205 84.9031 17.7022 84.5564 18.8997 83.8631C20.0972 83.1697 21.0109 82.1927 21.6409 80.9318L43.6697 38.9893L47.6122 41.2393C49.798 42.541 51.2647 44.421 52.0122 46.8793C52.7589 49.3377 52.7505 51.7943 51.9872 54.2493L46.4784 71.4031C49.5034 72.6273 51.6843 74.7106 53.0209 77.6531C54.3576 80.5956 54.5389 83.6214 53.5647 86.7306L49.3147 99.9806C48.5905 102.262 47.3259 104.164 45.5209 105.687C43.7168 107.209 41.6543 108.147 39.3334 108.499L12.9584 112.596ZM107.036 112.692L80.6609 108.596C78.3401 108.243 76.2776 107.306 74.4734 105.783C72.6684 104.261 71.4039 102.359 70.6797 100.077L66.4297 86.8268C65.4555 83.7177 65.6368 80.6918 66.9734 77.7493C68.3101 74.8068 70.4909 72.7235 73.5159 71.4993L68.0072 54.3456C67.2439 51.8906 67.2355 49.4339 67.9822 46.9756C68.7297 44.5173 70.1964 42.6373 72.3822 41.3356L76.3247 39.0856L98.3534 81.0281C98.9801 82.2889 99.8897 83.266 101.082 83.9593C102.274 84.6527 103.56 84.9993 104.94 84.9993H108.94V89.9993H104.94C102.638 89.9993 100.492 89.3985 98.5022 88.1968C96.5114 86.9943 94.9776 85.3773 93.9009 83.3456L74.6509 46.6531C73.6509 47.1531 73.0068 47.9831 72.7184 49.1431C72.4301 50.3039 72.4655 51.4868 72.8247 52.6918L84.4972 89.3643L79.7084 90.9218L75.0072 76.1918C73.2822 76.9677 72.0672 78.2177 71.3622 79.9418C70.6572 81.666 70.6093 83.4318 71.2184 85.2393L75.3722 98.4893C75.7697 99.8552 76.5172 100.992 77.6147 101.899C78.7122 102.807 79.9709 103.382 81.3909 103.624L107.766 107.721L107.036 112.692Z" fill="#1C1B1F"/>
</g>
</svg>
