<svg width="149" height="148" viewBox="0 0 149 148" fill="none" xmlns="http://www.w3.org/2000/svg">
<g clip-path="url(#clip0_1395_8302)">
<mask id="mask0_1395_8302" style="mask-type:alpha" maskUnits="userSpaceOnUse" x="1" y="0" width="148" height="148">
<rect x="1" width="148" height="148" fill="#D9D9D9"/>
</mask>
<g mask="url(#mask0_1395_8302)">
<path d="M75.0028 56.8005C77.0666 56.8005 78.8277 56.0712 80.2861 54.6128C81.7445 53.1544 82.4737 51.3933 82.4737 49.3295C82.4737 47.2658 81.7445 45.5047 80.2861 44.0462C78.8277 42.5878 77.0666 41.8586 75.0028 41.8586C72.939 41.8586 71.1779 42.5878 69.7195 44.0462C68.2611 45.5047 67.5319 47.2658 67.5319 49.3295C67.5319 51.3933 68.2611 53.1544 69.7195 54.6128C71.1779 56.0712 72.939 56.8005 75.0028 56.8005ZM75.0306 83.8397C71.8311 83.8397 68.9394 82.8926 66.3556 80.9985C63.7718 79.1053 61.9973 76.5184 61.0322 73.2377C60.5183 73.4741 59.9572 73.618 59.3487 73.6694C58.7403 73.7208 58.1396 73.7465 57.5465 73.7465C53.5721 73.7465 50.1712 72.359 47.3438 69.584C44.5164 66.809 43.1026 63.4214 43.1026 59.4213C43.1026 57.5949 43.4819 55.8338 44.2404 54.138C44.9999 52.4422 45.9804 50.8393 47.1819 49.3295C46.0041 47.8197 45.0554 46.2169 44.336 44.5211C43.6165 42.8252 43.2568 41.0641 43.2568 39.2378C43.2568 35.2377 44.6474 31.8501 47.4286 29.0751C50.2108 26.3001 53.5834 24.9126 57.5465 24.9126C58.1396 24.9126 58.7403 24.9383 59.3487 24.9897C59.9572 25.0411 60.5579 25.1454 61.1509 25.3027C62.116 22.1011 63.8617 19.5538 66.388 17.6606C68.9132 15.7664 71.7848 14.8193 75.0028 14.8193C78.2208 14.8193 81.0924 15.7664 83.6176 17.6606C86.1439 19.5538 87.8896 22.1011 88.8547 25.3027C89.4477 25.1454 90.0485 25.0411 90.6569 24.9897C91.2653 24.9383 91.8661 24.9126 92.4591 24.9126C96.4222 24.9126 99.7949 26.3001 102.577 29.0751C105.358 31.8501 106.749 35.2377 106.749 39.2378C106.749 41.0919 106.395 42.8797 105.688 44.6012C104.98 46.3228 104.025 47.8989 102.824 49.3295C104.002 50.8393 104.95 52.4422 105.67 54.138C106.389 55.8338 106.749 57.5949 106.749 59.4213C106.749 63.4214 105.358 66.809 102.577 69.584C99.7949 72.359 96.4222 73.7465 92.4591 73.7465C91.8661 73.7465 91.2653 73.7208 90.6569 73.6694C90.0485 73.618 89.4082 73.4741 88.736 73.2377C87.85 76.5184 86.1439 79.1053 83.6176 80.9985C81.0924 82.8926 78.23 83.8397 75.0306 83.8397ZM75.0028 128.548C75.0028 122.761 76.3091 117.114 78.9217 111.607C81.5354 106.1 85.0041 101.185 89.328 96.8607C93.6529 92.5358 98.5687 89.067 104.076 86.4544C109.581 83.8408 115.228 82.534 121.015 82.534C121.015 88.3214 119.709 93.9685 117.096 99.4753C114.484 104.982 111.015 109.897 106.69 114.221C102.365 118.546 97.4495 122.015 91.9426 124.628C86.4368 127.241 80.7902 128.548 75.0028 128.548ZM82.0467 121.503C90.1189 119.344 96.9181 115.502 102.444 109.976C107.971 104.45 111.813 97.6515 113.972 89.5794C105.899 91.7377 99.1001 95.58 93.5737 101.106C88.0474 106.633 84.205 113.432 82.0467 121.503ZM75.0028 128.548C75.0028 122.761 73.6965 117.114 71.0839 111.607C68.4703 106.1 65.0015 101.185 60.6776 96.8607C56.3528 92.5358 51.4369 89.067 45.9301 86.4544C40.4243 83.8408 34.7777 82.534 28.9902 82.534C28.9902 88.3214 30.2965 93.9685 32.9092 99.4753C35.5218 104.982 38.9905 109.897 43.3154 114.221C47.6403 118.546 52.5561 122.015 58.063 124.628C63.5688 127.241 69.2154 128.548 75.0028 128.548ZM67.9589 121.503C59.8868 119.344 53.0875 115.502 47.5611 109.976C42.0348 104.45 38.1924 97.6515 36.0341 89.5794C44.1063 91.7377 50.9055 95.58 56.4319 101.106C61.9583 106.633 65.8006 113.432 67.9589 121.503ZM92.4591 67.5798C94.7058 67.5798 96.6273 66.7797 98.2234 65.1794C99.8195 63.5781 100.618 61.6511 100.618 59.3982C100.618 57.7373 100.134 56.2095 99.1654 54.8148C98.1972 53.4191 96.8986 52.5712 95.2696 52.271L88.5695 50.8357C88.4277 51.7762 88.2144 52.695 87.9297 53.5922C87.645 54.4895 87.2457 55.3616 86.7318 56.2085C86.2179 57.0543 85.6804 57.8092 85.1192 58.4732C84.557 59.1371 83.8648 59.7497 83.0426 60.3108L87.3839 65.1609C88.0561 65.8886 88.8115 66.4739 89.6502 66.9169C90.4899 67.3588 91.4262 67.5798 92.4591 67.5798ZM88.5695 47.8233L95.2696 46.388C96.8986 46.0879 98.1915 45.2359 99.1484 43.832C100.104 42.428 100.582 40.8966 100.582 39.2378C100.582 36.9911 99.8 35.0696 98.2357 33.4735C96.6715 31.8774 94.7459 31.0793 92.4591 31.0793C91.3841 31.0793 90.4431 31.3003 89.6363 31.7422C88.8305 32.1852 88.0797 32.7705 87.3839 33.4982L83.0071 38.3482C83.8294 38.9094 84.5272 39.522 85.1007 40.1859C85.6742 40.8499 86.2179 41.6048 86.7318 42.4506C87.2457 43.2975 87.645 44.1696 87.9297 45.0668C88.2144 45.9641 88.4277 46.8829 88.5695 47.8233ZM69.5114 36.8066C70.4076 36.4746 71.3038 36.2058 72.2001 36.0003C73.0963 35.7947 74.0372 35.692 75.0229 35.692C76.0085 35.692 76.9494 35.7947 77.8456 36.0003C78.7408 36.2058 79.6237 36.4746 80.4942 36.8066L83.0426 29.0967C83.723 26.9949 83.1993 25.1177 81.4717 23.465C79.744 21.8123 77.5877 20.986 75.0028 20.986C72.418 20.986 70.2617 21.8123 68.534 23.465C66.8063 25.1177 66.2826 26.9949 66.963 29.0967L69.5114 36.8066ZM75.0028 77.6731C77.5877 77.6731 79.744 76.8467 81.4717 75.1941C83.1993 73.5414 83.723 71.6642 83.0426 69.5624L80.4942 61.8525C79.6237 62.2636 78.7408 62.5524 77.8456 62.7189C76.9494 62.8844 76.0085 62.9671 75.0229 62.9671C74.0372 62.9671 73.0896 62.8844 72.18 62.7189C71.2715 62.5524 70.3819 62.2636 69.5114 61.8525L66.963 69.5624C66.2826 71.6642 66.8063 73.5414 68.534 75.1941C70.2617 76.8467 72.418 77.6731 75.0028 77.6731ZM61.4361 47.8233C61.578 46.8829 61.7912 45.9641 62.0759 45.0668C62.3606 44.1696 62.7599 43.2975 63.2738 42.4506C63.7877 41.6048 64.3252 40.8499 64.8864 40.1859C65.4486 39.522 66.1408 38.9094 66.963 38.3482L62.6217 33.4982C61.9495 32.7705 61.1941 32.1852 60.3554 31.7422C59.5157 31.3003 58.5794 31.0793 57.5465 31.0793C55.2998 31.0793 53.3784 31.8774 51.7822 33.4735C50.1861 35.0696 49.388 36.9911 49.388 39.2378C49.388 40.8966 49.8721 42.428 50.8403 43.832C51.8084 45.2359 53.107 46.0879 54.7361 46.388L61.4361 47.8233ZM57.5465 67.5443C58.6062 67.5443 59.5625 67.329 60.4156 66.8984C61.2696 66.4677 62.005 65.8768 62.6217 65.1255L66.9985 60.3108C66.1763 59.7497 65.4784 59.1371 64.9049 58.4732C64.3314 57.8092 63.7877 57.0543 63.2738 56.2085C62.7599 55.3616 62.3606 54.4895 62.0759 53.5922C61.7912 52.695 61.578 51.7762 61.4361 50.8357L54.7361 52.271C53.107 52.5712 51.7946 53.4232 50.7987 54.8271C49.8027 56.2311 49.3048 57.7625 49.3048 59.4213C49.3284 61.6906 50.1409 63.612 51.7421 65.1856C53.3424 66.7581 55.2772 67.5443 57.5465 67.5443Z" fill="white"/>
</g>
</g>
<defs>
<clipPath id="clip0_1395_8302">
<rect x="0.5" width="148" height="148" rx="24" fill="white"/>
</clipPath>
</defs>
</svg>
