<svg width="121" height="121" viewBox="0 0 121 121" fill="none" xmlns="http://www.w3.org/2000/svg">
<mask id="mask0_1396_8407" style="mask-type:alpha" maskUnits="userSpaceOnUse" x="0" y="0" width="121" height="121">
<rect x="0.654297" y="0.166992" width="120" height="120" fill="#D9D9D9"/>
</mask>
<g mask="url(#mask0_1396_8407)">
<path d="M46.7346 102.716C37.7471 99.8059 30.3367 94.4855 24.5034 86.7546C18.67 79.0238 15.7534 70.1392 15.7534 60.1009C15.7534 57.4859 15.9696 54.8963 16.4021 52.3321C16.8346 49.768 17.5254 47.2613 18.4746 44.8121L7.62836 51.0721L5.22461 46.7746L24.6759 35.5246L35.9259 54.9471L31.5996 57.5434L24.0796 44.5434C22.9713 46.9859 22.1559 49.5276 21.6334 52.1684C21.1109 54.8092 20.8496 57.4855 20.8496 60.1971C20.8496 69.178 23.5225 77.1571 28.8684 84.1346C34.215 91.1121 41.0354 95.8317 49.3296 98.2934L46.7346 102.716ZM76.7146 40.0721V35.0721H91.5896C87.8205 30.3221 83.2275 26.6667 77.8109 24.1059C72.3942 21.5451 66.6763 20.2646 60.6571 20.2646C55.3688 20.2646 50.4263 21.2134 45.8296 23.1109C41.2338 25.0084 37.1634 27.6334 33.6184 30.9859L31.0221 26.4659C34.9971 22.9726 39.4909 20.2326 44.5034 18.2459C49.5159 16.2584 54.8684 15.2646 60.5609 15.2646C67.08 15.2646 73.2434 16.5738 79.0509 19.1921C84.8592 21.8113 89.9138 25.5821 94.2146 30.5046V17.5721H99.2146V40.0721H76.7146ZM77.4071 114.591L57.9546 103.246L69.2046 83.9184L73.5034 86.4184L65.7046 99.7259C75.6021 98.4376 83.87 94.0434 90.5084 86.5434C97.1459 79.0434 100.465 70.2517 100.465 60.1684C100.465 58.4184 100.348 56.6988 100.113 55.0096C99.88 53.3205 99.5196 51.6746 99.0321 50.0721H104.253C104.658 51.6746 104.96 53.3046 105.162 54.9621C105.364 56.6188 105.465 58.3222 105.465 60.0722C105.465 70.938 102.046 80.4876 95.2096 88.7209C88.3729 96.9551 79.6759 102.069 69.1184 104.062L79.9071 110.293L77.4071 114.591Z" fill="#1C1B1F"/>
</g>
</svg>
