<svg width="120" height="120" viewBox="0 0 120 120" fill="none" xmlns="http://www.w3.org/2000/svg">
<mask id="mask0_1431_3190" style="mask-type:alpha" maskUnits="userSpaceOnUse" x="0" y="0" width="120" height="120">
<rect width="120" height="120" fill="#D9D9D9"/>
</mask>
<g mask="url(#mask0_1431_3190)">
<path d="M95 45C96.4167 45 97.6042 44.5208 98.5625 43.5625C99.5208 42.6042 100 41.4167 100 40C100 38.5833 99.5208 37.3958 98.5625 36.4375C97.6042 35.4792 96.4167 35 95 35C93.5833 35 92.3958 35.4792 91.4375 36.4375C90.4792 37.3958 90 38.5833 90 40C90 41.4167 90.4792 42.6042 91.4375 43.5625C92.3958 44.5208 93.5833 45 95 45ZM94.9938 50C92.1579 50 89.7833 49.0438 87.87 47.1313C85.9567 45.2188 85 42.8492 85 40.0225C85 37.2508 85.9563 34.8875 87.8688 32.9325C89.7812 30.9775 92.1508 30 94.9775 30C97.7492 30 100.112 30.9729 102.067 32.9187C104.022 34.8646 105 37.2271 105 40.0062C105 42.8421 104.027 45.2167 102.081 47.13C100.135 49.0433 97.7729 50 94.9938 50ZM60 40C62.0833 40 63.8542 39.2917 65.3125 37.875C66.7708 36.4583 67.5 34.6667 67.5 32.5C67.5 30.4167 66.7708 28.6458 65.3125 27.1875C63.8542 25.7292 62.0833 25 60 25C57.8333 25 56.0417 25.7292 54.625 27.1875C53.2083 28.6458 52.5 30.4167 52.5 32.5C52.5 34.6667 53.2083 36.4583 54.625 37.875C56.0417 39.2917 57.8333 40 60 40ZM60.0063 45C56.4954 45 53.5333 43.7975 51.12 41.3925C48.7067 38.9883 47.5 36.0346 47.5 32.5313C47.5 29.0871 48.7025 26.1375 51.1075 23.6825C53.5117 21.2275 56.4654 20 59.9688 20C63.4129 20 66.3625 21.2196 68.8175 23.6588C71.2725 26.0979 72.5 29.0429 72.5 32.4938C72.5 36.0046 71.2804 38.9667 68.8412 41.38C66.4021 43.7933 63.4571 45 60.0063 45ZM37.3075 66.875C37.3075 69.8875 38.705 73.1888 41.5 76.7788C44.295 80.3688 49.8525 85.9488 58.1725 93.5188L60 95.1537L62.0188 93.2312C69.8521 86.1479 75.2562 80.7333 78.2312 76.9875C81.2054 73.2425 82.6925 69.8717 82.6925 66.875C82.6925 64.2075 81.8088 61.9463 80.0413 60.0913C78.2729 58.2354 76.0925 57.3075 73.5 57.3075C71.9425 57.3075 70.4679 57.6538 69.0762 58.3462C67.6854 59.0387 66.4967 59.9713 65.51 61.1438L60.375 67.3075H59.5962L54.365 61.1438C53.3783 59.9713 52.2038 59.0387 50.8413 58.3462C49.4788 57.6538 48.0317 57.3075 46.5 57.3075C43.7892 57.3075 41.5796 58.2354 39.8713 60.0913C38.1621 61.9463 37.3075 64.2075 37.3075 66.875ZM32.3075 66.875C32.3075 63.0992 33.6954 59.7275 36.4713 56.76C39.2471 53.7917 42.59 52.3075 46.5 52.3075C48.955 52.3075 51.2417 52.8908 53.36 54.0575C55.4792 55.2242 57.2758 56.7433 58.75 58.615L60 60.0575L61.25 58.5187C62.7883 56.7113 64.5958 55.2242 66.6725 54.0575C68.75 52.8908 71.0258 52.3075 73.5 52.3075C77.3458 52.3075 80.6729 53.8004 83.4812 56.7863C86.2887 59.7713 87.6925 63.1342 87.6925 66.875C87.6925 70.7792 86.1683 74.7646 83.12 78.8312C80.0717 82.8988 74.1342 88.9613 65.3075 97.0188L60 101.923L54.885 97.3075C45.7633 88.91 39.72 82.7304 36.755 78.7687C33.79 74.8079 32.3075 70.8433 32.3075 66.875ZM25 45C26.4167 45 27.6042 44.5208 28.5625 43.5625C29.5208 42.6042 30 41.4167 30 40C30 38.5833 29.5208 37.3958 28.5625 36.4375C27.6042 35.4792 26.4167 35 25 35C23.5833 35 22.3958 35.4792 21.4375 36.4375C20.4792 37.3958 20 38.5833 20 40C20 41.4167 20.4792 42.6042 21.4375 43.5625C22.3958 44.5208 23.5833 45 25 45ZM60.375 105V100H100V68.0775C100 67.2442 99.6954 66.5229 99.0863 65.9137C98.4771 65.3046 97.7558 65 96.9225 65H85.635V60H96.9225C99.1442 60 101.046 60.7908 102.628 62.3725C104.209 63.9542 105 65.8558 105 68.0775V105H60.375ZM20 100H60.375V105H15V68.1037C15 65.8487 15.7742 63.9342 17.3225 62.36C18.87 60.7867 20.7883 60 23.0775 60H34.365V65H23.0775C22.18 65 21.4425 65.3046 20.865 65.9137C20.2883 66.5229 20 67.2442 20 68.0775V100ZM24.9937 50C22.1579 50 19.7833 49.0438 17.87 47.1313C15.9567 45.2188 15 42.8492 15 40.0225C15 37.2508 15.9562 34.8875 17.8687 32.9325C19.7812 30.9775 22.1508 30 24.9775 30C27.7492 30 30.1125 30.9729 32.0675 32.9187C34.0225 34.8646 35 37.2271 35 40.0062C35 42.8421 34.0271 45.2167 32.0812 47.13C30.1354 49.0433 27.7729 50 24.9937 50Z" fill="#1C1B1F"/>
</g>
</svg>
