<svg width="149" height="148" viewBox="0 0 149 148" fill="none" xmlns="http://www.w3.org/2000/svg">
<mask id="mask0_1396_8485" style="mask-type:alpha" maskUnits="userSpaceOnUse" x="0" y="0" width="149" height="148">
<rect x="0.5" width="148" height="148" fill="#D9D9D9"/>
</mask>
<g mask="url(#mask0_1396_8485)">
<path d="M25.1667 102.223V113.369C25.1667 114.319 25.5618 115.189 26.3522 115.979C27.1426 116.77 28.0126 117.165 28.9622 117.165H120.038C120.987 117.165 121.857 116.77 122.648 115.979C123.438 115.189 123.833 114.319 123.833 113.369V102.223H25.1667ZM28.9622 43.4023H49.525C49.0111 42.4773 48.5784 41.501 48.2269 40.4732C47.8744 39.4454 47.6981 38.3662 47.6981 37.2357C47.6981 33.7566 48.8842 30.8311 51.2563 28.459C53.6284 26.0879 56.5535 24.9023 60.0315 24.9023C62.1189 24.9023 64.0496 25.4491 65.8235 26.5427C67.5974 27.6362 69.1458 28.9944 70.4685 30.6173L74.2626 35.8127L78.0582 30.6173C79.3542 28.942 80.9025 27.5705 82.7032 26.5026C84.5029 25.4358 86.4412 24.9023 88.5184 24.9023C91.981 24.9023 94.8978 26.0879 97.2689 28.459C99.641 30.8311 100.827 33.7566 100.827 37.2357C100.827 38.3662 100.671 39.4454 100.358 40.4732C100.046 41.501 99.5932 42.4773 99.0002 43.4023H120.038C122.876 43.4023 125.247 44.353 127.148 46.2544C129.049 48.1558 130 50.5254 130 53.3631V113.369C130 116.208 129.049 118.578 127.148 120.48C125.247 122.381 122.876 123.332 120.038 123.332H28.9622C26.1235 123.332 23.7535 122.381 21.8521 120.48C19.9507 118.578 19 116.208 19 113.369V53.3631C19 50.5254 19.9507 48.1558 21.8521 46.2544C23.7535 44.353 26.1235 43.4023 28.9622 43.4023ZM25.1667 88.9401H123.833V53.3631C123.833 52.4144 123.438 51.5449 122.648 50.7546C121.857 49.9642 120.987 49.569 120.038 49.569H84.0815L96.3207 66.4318L91.4352 69.9668L74.2626 46.5797L57.0915 69.9668L52.2044 66.4318L64.3728 49.569H28.9622C28.0126 49.569 27.1426 49.9642 26.3522 50.7546C25.5618 51.5449 25.1667 52.4144 25.1667 53.3631V88.9401ZM60.0315 43.4023C61.7787 43.4023 63.2433 42.8114 64.4252 41.6294C65.6072 40.4475 66.1981 38.9829 66.1981 37.2357C66.1981 35.4885 65.6072 34.0239 64.4252 32.8419C63.2433 31.66 61.7787 31.069 60.0315 31.069C58.2842 31.069 56.8197 31.66 55.6377 32.8419C54.4558 34.0239 53.8648 35.4885 53.8648 37.2357C53.8648 38.9829 54.4558 40.4475 55.6377 41.6294C56.8197 42.8114 58.2842 43.4023 60.0315 43.4023ZM88.4937 43.4023C90.2409 43.4023 91.7055 42.8114 92.8875 41.6294C94.0694 40.4475 94.6604 38.9829 94.6604 37.2357C94.6604 35.4885 94.0694 34.0239 92.8875 32.8419C91.7055 31.66 90.2409 31.069 88.4937 31.069C86.7465 31.069 85.2819 31.66 84.1 32.8419C82.918 34.0239 82.327 35.4885 82.327 37.2357C82.327 38.9829 82.918 40.4475 84.1 41.6294C85.2819 42.8114 86.7465 43.4023 88.4937 43.4023Z" fill="black"/>
</g>
</svg>
