<svg width="149" height="148" viewBox="0 0 149 148" fill="none" xmlns="http://www.w3.org/2000/svg">
<mask id="mask0_1396_8496" style="mask-type:alpha" maskUnits="userSpaceOnUse" x="0" y="0" width="149" height="148">
<rect x="0.5" width="148" height="148" fill="#D9D9D9"/>
</mask>
<g mask="url(#mask0_1396_8496)">
<path d="M129.361 111.048L115.248 96.8167L119.494 92.5709L133.724 106.683L129.361 111.048ZM109.65 39.3002L105.405 35.0544L119.517 20.9435L123.882 25.1878L109.65 39.3002ZM39.3505 39.4189L25.2381 25.1878L29.4838 20.9435L43.7149 35.0544L39.3505 39.4189ZM19.5216 111.048L15.2773 106.683L29.3882 92.5709L33.7527 96.8167L19.5216 111.048ZM49.6211 110.277L74.5005 95.3583L99.4986 110.55L92.9881 82.3019L114.844 63.4689L86.0506 60.8727L74.5005 34.2127L63.069 60.7185L34.2753 63.196L56.1315 82.3019L49.6211 110.277ZM40.2169 123.333L49.2881 84.6375L19.0005 58.4646L58.8942 55.0853L74.5005 18.5L90.2255 55.0853L130.119 58.4646L99.8316 84.6375L108.903 123.333L74.5005 102.734L40.2169 123.333Z" fill="white"/>
</g>
</svg>
