<svg width="19" height="18" viewBox="0 0 19 18" fill="none" xmlns="http://www.w3.org/2000/svg">
<path d="M13.5156 8V5H10.5156V3H13.5156V0H15.5156V3H18.5156V5H15.5156V8H13.5156ZM17.4656 18C15.3823 18 13.324 17.5458 11.2906 16.6375C9.25729 15.7292 7.40729 14.4417 5.74062 12.775C4.07396 11.1083 2.78646 9.25833 1.87813 7.225C0.969792 5.19167 0.515625 3.13333 0.515625 1.05C0.515625 0.75 0.615625 0.5 0.815625 0.3C1.01562 0.1 1.26563 0 1.56563 0H5.61562C5.84896 0 6.05729 0.0791667 6.24062 0.2375C6.42396 0.395833 6.53229 0.583333 6.56563 0.8L7.21563 4.3C7.24896 4.56667 7.24063 4.79167 7.19063 4.975C7.14062 5.15833 7.04896 5.31667 6.91563 5.45L4.49063 7.9C4.82396 8.51667 5.21979 9.1125 5.67812 9.6875C6.13646 10.2625 6.64062 10.8167 7.19063 11.35C7.70729 11.8667 8.24896 12.3458 8.81563 12.7875C9.38229 13.2292 9.98229 13.6333 10.6156 14L12.9656 11.65C13.1156 11.5 13.3115 11.3875 13.5531 11.3125C13.7948 11.2375 14.0323 11.2167 14.2656 11.25L17.7156 11.95C17.949 12.0167 18.1406 12.1375 18.2906 12.3125C18.4406 12.4875 18.5156 12.6833 18.5156 12.9V16.95C18.5156 17.25 18.4156 17.5 18.2156 17.7C18.0156 17.9 17.7656 18 17.4656 18ZM3.54063 6L5.19063 4.35L4.76562 2H2.54063C2.62396 2.68333 2.74062 3.35833 2.89062 4.025C3.04063 4.69167 3.25729 5.35 3.54063 6ZM12.4906 14.95C13.1406 15.2333 13.8031 15.4583 14.4781 15.625C15.1531 15.7917 15.8323 15.9 16.5156 15.95V13.75L14.1656 13.275L12.4906 14.95Z" fill="#1C1B1F"/>
</svg>
